<?xml version="1.0" encoding="utf-8"?>
<!-- Generator: Adobe Illustrator 22.0.1, SVG Export Plug-In . SVG Version: 6.00 Build 0)  -->
<svg version="1.1" id="Layer_1" xmlns="http://www.w3.org/2000/svg" xmlns:xlink="http://www.w3.org/1999/xlink" x="0px" y="0px"
	 viewBox="0 0 600 600" style="enable-background:new 0 0 600 600;" xml:space="preserve">
<style type="text/css">
	.st0{clip-path:url(#SVGID_2_);fill:none;stroke:#B78E00;stroke-width:1.849;stroke-miterlimit:10;}
	.st1{fill:#575756;}
	.st2{fill:#9A969B;}
	.st3{fill:none;stroke:#666666;stroke-width:4.511;stroke-miterlimit:10;}
	.st4{fill:#E9EBEC;}
	.st5{fill:#B78E00;}
	.st6{fill:none;}
</style>
<g>
	<defs>
		<rect id="SVGID_1_" x="35" y="87.5" width="530.7" height="426.5"/>
	</defs>
	<clipPath id="SVGID_2_">
		<use xlink:href="#SVGID_1_"  style="overflow:visible;"/>
	</clipPath>
	<line class="st0" x1="35" y1="418.1" x2="565.1" y2="418.1"/>
	<line class="st0" x1="35.6" y1="513.1" x2="565.7" y2="513.1"/>
</g>
<g>
	<path class="st1" d="M277,467.2c0-4.6,0.9-8.3,2.6-11c1.7-2.8,4-4.1,6.8-4.1c2.8,0,5.1,1.4,6.8,4.2c1.7,2.8,2.6,6.4,2.6,11
		c0,4.5-0.9,8.2-2.6,11c-1.7,2.8-4,4.2-6.9,4.2c-2.8,0-5.1-1.4-6.8-4.2C277.8,475.4,277,471.7,277,467.2z M280.6,467.2
		c0,6.1,0.5,10,1.5,11.6s2.4,2.5,4.3,2.5c2.1,0,3.6-1,4.5-3c0.9-2,1.3-5.7,1.3-11.1c0-6.1-0.5-10-1.5-11.6c-1-1.6-2.4-2.5-4.2-2.5
		c-1.8,0-3.2,0.8-4.3,2.5C281.1,457.2,280.6,461.1,280.6,467.2z"/>
	<path class="st1" d="M313,466.6c1.9,0.2,3.6,0.9,5.1,2.3s2.2,3.2,2.2,5.4c0,2.5-0.9,4.5-2.7,5.9c-1.8,1.4-4,2.1-6.6,2.1
		c-2.6,0-4.8-0.8-6.6-2.3c-1.8-1.5-2.6-3.4-2.6-5.7c0-2,0.6-3.6,1.9-5s3-2.3,5.2-2.7c-1.8-0.5-3.3-1.3-4.4-2.6
		c-1.2-1.3-1.7-2.8-1.7-4.6c0-2.2,0.8-3.9,2.4-5.3s3.5-2,5.9-2c2.2,0,4.2,0.7,5.8,2s2.5,3.1,2.5,5.3c0,1.8-0.5,3.3-1.6,4.6
		C316.8,465.2,315.2,466.1,313,466.6z M305.5,474.1c0,1.7,0.2,3,0.5,3.9s0.9,1.8,1.8,2.4c0.9,0.6,2,0.9,3.2,0.9c1.6,0,3-0.5,4.1-1.4
		s1.6-2.8,1.6-5.6c0-2.8-0.5-4.7-1.6-5.7c-1.1-1-2.5-1.5-4.2-1.5c-1.8,0-3.2,0.6-4.1,1.9S305.5,471.9,305.5,474.1z M306.2,458.9
		c0,2.4,0.4,4.2,1.2,5.4s1.9,1.8,3.5,1.8c1.7,0,3-0.6,3.8-1.7c0.8-1.1,1.3-2.8,1.3-5.1c0-2.1-0.4-3.6-1.3-4.7
		c-0.9-1.1-2.1-1.6-3.6-1.6c-1.4,0-2.5,0.5-3.4,1.5C306.7,455.4,306.2,456.9,306.2,458.9z"/>
</g>
<g>
	<path class="st1" d="M187.2,452h1v23.4c0,1.9,0,3.1,0.1,3.6c0.1,0.5,0.3,0.9,0.6,1.1c0.4,0.3,1,0.4,2,0.4h0.9v1h-9.9v-1h0.7
		c1.1,0,1.7-0.2,2.1-0.5s0.5-0.7,0.6-1.1c0.1-0.4,0.1-1.6,0.1-3.6v-15.7c0-2,0-3.2-0.1-3.6c0-0.4-0.2-0.8-0.6-1.1
		c-0.3-0.3-1-0.5-2.1-0.5h-0.9v-1C184.1,453.5,186,453,187.2,452z"/>
	<path class="st1" d="M213,466.6c1.9,0.2,3.6,0.9,5.1,2.3c1.5,1.4,2.2,3.2,2.2,5.4c0,2.5-0.9,4.5-2.7,5.9c-1.8,1.4-4,2.1-6.6,2.1
		c-2.6,0-4.8-0.8-6.6-2.3c-1.8-1.5-2.6-3.4-2.6-5.7c0-2,0.6-3.6,1.9-5c1.3-1.4,3-2.3,5.2-2.7c-1.8-0.5-3.3-1.3-4.4-2.6
		c-1.2-1.3-1.7-2.8-1.7-4.6c0-2.2,0.8-3.9,2.4-5.3c1.6-1.4,3.5-2,5.9-2c2.2,0,4.2,0.7,5.8,2c1.7,1.3,2.5,3.1,2.5,5.3
		c0,1.8-0.5,3.3-1.6,4.6C216.8,465.2,215.2,466.1,213,466.6z M205.5,474.1c0,1.7,0.2,3,0.5,3.9s0.9,1.8,1.8,2.4
		c0.9,0.6,2,0.9,3.2,0.9c1.6,0,3-0.5,4.1-1.4c1.1-0.9,1.6-2.8,1.6-5.6c0-2.8-0.5-4.7-1.6-5.7c-1.1-1-2.5-1.5-4.2-1.5
		c-1.8,0-3.2,0.6-4.1,1.9S205.5,471.9,205.5,474.1z M206.3,458.9c0,2.4,0.4,4.2,1.2,5.4s1.9,1.8,3.5,1.8c1.7,0,3-0.6,3.8-1.7
		c0.8-1.1,1.3-2.8,1.3-5.1c0-2.1-0.4-3.6-1.3-4.7s-2.1-1.6-3.6-1.6c-1.4,0-2.5,0.5-3.4,1.5C206.7,455.4,206.3,456.9,206.3,458.9z"/>
</g>
<g>
	<path class="st1" d="M389.6,452h1v23.4c0,1.9,0,3.1,0.1,3.6c0.1,0.5,0.3,0.9,0.6,1.1c0.4,0.3,1,0.4,2,0.4h0.9v1h-9.9v-1h0.7
		c1.1,0,1.7-0.2,2.1-0.5c0.3-0.3,0.5-0.7,0.6-1.1c0.1-0.4,0.1-1.6,0.1-3.6v-15.7c0-2,0-3.2-0.1-3.6c0-0.4-0.2-0.8-0.6-1.1
		c-0.3-0.3-1-0.5-2.1-0.5h-0.9v-1C386.5,453.5,388.3,453,389.6,452z"/>
	<path class="st1" d="M415.4,466.6c1.9,0.2,3.6,0.9,5.1,2.3s2.2,3.2,2.2,5.4c0,2.5-0.9,4.5-2.7,5.9c-1.8,1.4-4,2.1-6.6,2.1
		c-2.6,0-4.8-0.8-6.6-2.3c-1.8-1.5-2.6-3.4-2.6-5.7c0-2,0.6-3.6,1.9-5c1.3-1.4,3-2.3,5.2-2.7c-1.8-0.5-3.3-1.3-4.4-2.6
		c-1.2-1.3-1.7-2.8-1.7-4.6c0-2.2,0.8-3.9,2.4-5.3s3.5-2,5.9-2c2.2,0,4.2,0.7,5.8,2s2.5,3.1,2.5,5.3c0,1.8-0.5,3.3-1.6,4.6
		C419.2,465.2,417.6,466.1,415.4,466.6z M407.9,474.1c0,1.7,0.2,3,0.5,3.9s0.9,1.8,1.8,2.4c0.9,0.6,2,0.9,3.2,0.9
		c1.6,0,3-0.5,4.1-1.4s1.6-2.8,1.6-5.6c0-2.8-0.5-4.7-1.6-5.7c-1.1-1-2.5-1.5-4.2-1.5c-1.8,0-3.2,0.6-4.1,1.9
		S407.9,471.9,407.9,474.1z M408.6,458.9c0,2.4,0.4,4.2,1.2,5.4c0.8,1.2,1.9,1.8,3.5,1.8c1.7,0,3-0.6,3.8-1.7
		c0.8-1.1,1.3-2.8,1.3-5.1c0-2.1-0.4-3.6-1.3-4.7c-0.9-1.1-2.1-1.6-3.6-1.6c-1.4,0-2.5,0.5-3.4,1.5
		C409.1,455.4,408.6,456.9,408.6,458.9z"/>
</g>
<path class="st2" d="M248.8,467.4c0.9,0,1.6-0.7,1.6-1.6s-0.7-1.6-1.6-1.6c-0.9,0-1.6,0.7-1.6,1.6S247.9,467.4,248.8,467.4"/>
<ellipse transform="matrix(1.913264e-03 -1 1 1.913264e-03 -217.5728 713.7373)" class="st3" cx="248.8" cy="465.9" rx="1.6" ry="1.6"/>
<path class="st2" d="M348.7,467.4c0.9,0,1.6-0.7,1.6-1.6s-0.7-1.6-1.6-1.6c-0.9,0-1.6,0.7-1.6,1.6S347.9,467.4,348.7,467.4"/>
<path class="st3" d="M348.7,467.4c0.9,0,1.6-0.7,1.6-1.6s-0.7-1.6-1.6-1.6c-0.9,0-1.6,0.7-1.6,1.6S347.9,467.4,348.7,467.4z"/>
<path class="st4" d="M307,87.5c-12.5,0-24.2,3.8-35.1,11.4c-10.8,7.6-20.3,17.1-28.5,28.5c-8.1,11.4-14.5,23.6-19.1,36.6
	c-4.6,13.1-6.9,25-6.9,35.8c-9.5,4.1-18.7,9.3-27.7,15.8c-9,6.4-17,13.9-24.1,22.4c-7.1,8.5-12.8,17.6-17,27.4
	c-4.2,9.8-6.4,20.3-6.4,31.5c0,9.5,1.7,18.4,5.1,26.7c3.4,8.3,8.2,15.5,14.5,21.6c6.3,6.1,13.9,10.9,22.9,14.5
	c9,3.6,19.1,5.3,30.2,5.3c8.1,0,15.5-0.8,22.1-2.5c6.6-1.7,12.7-3.9,18.3-6.6c5.6-2.7,10.6-5.7,15-8.9c4.4-3.2,8.3-6.4,11.7-9.4
	c6.1,4.7,12.9,8.9,20.3,12.5c7.4,3.6,15.2,6.4,23.1,8.6c8,2.2,15.8,3.8,23.6,4.8c7.8,1,14.9,1.5,21.4,1.5c23,0,45.2-5.6,66.6-16.8
	c21.4-11.2,39.1-27.5,53.4-48.8l-2.5-2c-5.8,8.5-12.5,16.3-20.3,23.4c-7.8,7.1-16.3,13.4-25.4,18.8c-9.1,5.4-18.8,9.7-29,12.7
	c-10.2,3.1-20.5,4.6-31,4.6c-14.9,0-29.5-3.6-43.7-10.7c-14.2-7.1-26.4-15.8-36.6-25.9c12.5-11.9,26.4-26.8,41.7-44.7
	c4.7-6.1,9.5-11.9,14.2-17.3c4.7-5.4,9.6-10.2,14.5-14.5c4.9-4.2,10.2-7.6,15.8-10.2c5.6-2.5,11.6-3.8,18-3.8c8.8,0,16.3,2,22.4,5.8
	c6.1,3.9,10.5,8.7,13.2,14.5c2.4-2.4,4.3-5.2,5.9-8.6c1.5-3.4,2.3-6.4,2.3-9.2c0-7.8-3-14.1-8.9-18.8c-5.9-4.7-13.3-7.1-22.1-7.1
	c-10.5,0-20.4,3.6-29.7,10.9c-9.3,7.3-18.6,16.4-28,27.5c-9.3,11-19.1,23-29.2,35.8c-10.2,12.9-21.5,24.9-34.1,36.1
	c-15.9-16.3-28.6-34.9-38.1-55.9c-9.5-21-14.4-43-14.7-66.1c6.4-3.7,15-8.1,25.7-13.2c10.7-5.1,21.1-10.9,31.3-17.5
	c10.2-6.6,18.9-13.7,26.2-21.4c7.3-7.6,10.9-15.8,10.9-24.7c0-9.8-3-17.4-9.1-22.6C323.7,90.1,316.1,87.5,307,87.5 M245,189.2
	c0-6.8,0.5-14.6,1.5-23.6c1-9,4.1-19.4,9.2-31.3c5.8-13.2,12.8-23.3,21.1-30.2c8.3-6.9,16.2-10.4,23.6-10.4
	c12.2,0,18.3,7.3,18.3,21.9c0,9.1-2,17.4-5.8,24.7c-3.9,7.3-9.2,13.8-16,19.6c-6.8,5.8-14.7,11-23.6,15.8
	C264.2,180.2,254.8,184.8,245,189.2 M222.6,352.8c-8.1,0-15.4-1.8-21.9-5.3c-6.4-3.6-11.9-8.3-16.5-14.2
	c-4.6-5.9-8.1-12.8-10.7-20.6c-2.5-7.8-3.8-15.8-3.8-23.9c0-8.5,1-16.9,3.1-25.4c2-8.5,5.1-16.4,9.2-23.9c4.1-7.4,9.1-14.1,15-20.1
	c5.9-5.9,12.8-10.6,20.6-14c0,24.4,5.3,48,16,70.9c10.7,22.9,25.3,42.1,44,57.7c-6.4,5.1-14.1,9.5-22.9,13.2
	C245.8,351,235.1,352.8,222.6,352.8"/>
<path class="st5" d="M338.2,264.1c5.4,5.5,10.8,8.1,16,7.7c1.2-0.1,1.7-0.5,1.7-1.3c-0.1-0.8-0.6-1.5-1.5-2.2c-1-0.7-2.2-1.4-3.8-2
	C346.9,264.7,342.7,264,338.2,264.1 M330.7,249.6c4.1,0.3,9.3,0.2,15.4-0.3c6.2-0.5,12.1-1.4,17.8-2.7c5.7-1.3,11.2-3.1,16.6-5.2
	c5.4-2.1,10.4-4.6,15.1-7.4c4.7-2.8,8.8-5.9,12.2-9.3c7.5-7.5,11-15.4,10.4-23.6c-0.4-5.4-3.3-9.6-8.8-12.6c-5.7-3.1-12-4.4-19-3.9
	c-7,0.6-12.8,1.9-17.7,4.2c-4.8,2.2-9.4,5-13.7,8.4c-4.3,3.4-8.3,7.2-11.9,11.5c-3.6,4.3-6.6,8.7-9.2,13.2c-5.5,9.6-8,18.3-7.4,26.1
	L330.7,249.6z M302.5,346.5c1.5,0,3.5-0.1,6.2-0.3c2.7-0.2,6-1.2,10-2.9c4-1.7,7.8-3.8,11.6-6.4c3.7-2.6,7.2-5.4,10.5-8.6
	c3.3-3.2,6.1-6.5,8.5-9.9c5.1-7.3,7.5-13.5,7.2-18.7c-0.2-3.2-1.5-5.5-3.9-7c-2.4-1.5-5.5-2.1-9.5-1.8c-3.9,0.3-8.3,1.9-13.1,4.8
	c-4.8,2.9-9.2,6.8-13.3,11.7C307.6,318.6,302.9,331.6,302.5,346.5 M310.7,378.5c0.8,0.7,1.2,1.3,1.3,1.8c0,0.5-0.4,0.8-1.3,0.8
	c-3,0.2-5.7-4.2-8.3-13.4c-1.4-4.8-2.4-9.8-2.9-15.1l-0.2-3.3c-9.8-0.3-18-2.9-24.4-8c-6.2-4.8-9.6-11.2-10.3-19.1
	c-1-9.5,1.2-19,6.5-28.2c7.8-13.8,20.3-23.6,37.5-29.4c5.6-1.8,11.5-3,17.8-3.5l0.7-0.1c-2.2-2.7-3.8-5.8-4.9-9.3c0,0-0.5,0-4.6-0.8
	c-45.5-9.1-56.6-44-53-62.3c0.9-4.7,5.8-6.7,3.1,0.6c-4.9,18,12.2,54,53.7,59.5c-0.4-0.1-0.2-0.8-0.2-1.2c0-0.5-0.1-0.9-0.1-1.4
	c-0.9-11.3,1.8-21.9,8.1-31.8c8.9-13.8,21.8-23.4,39-28.9c5.2-1.7,10.3-2.8,15.4-3.2c11.8-0.9,21.1,0.5,28,4.3
	c6.9,3.8,10.6,9.7,11.1,17.5c0.4,5.9-1.3,11.5-5,17c-3.7,5.5-8.9,10.4-15.6,14.7c-14.5,9.4-32.1,15-52.7,16.6
	c-6.4,0.5-12.4,0.6-18,0.3c0.9,2.9,2.3,5.7,4.2,8.3c7.2,0.3,12.7,1.3,16.5,3.2c3.8,1.9,5.9,4,6.1,6.3c0.2,2.4-1.5,3.8-5.1,4.1
	c-7.8,0.6-15.3-2.5-22.6-9.5c-14,2.7-26.8,10.5-38.5,23.3c-7.1,8-11.9,16.2-14.4,24.5c-1.2,4.3-1.6,9-1.2,14c0.5,5,2.6,9.4,6.5,13.2
	c3.9,3.8,9.4,5.9,16.4,6.5c0.2-14.1,4.6-27,13.3-38.8c8.9-12.1,19.2-18.6,30.9-19.6c4.6-0.4,8.7,0.9,12.3,3.7
	c3.6,2.8,5.6,6.8,5.9,11.9c0.4,5.1-0.8,10.3-3.4,15.7c-2.6,5.4-6.4,10.2-11.4,14.4c-10.7,9-24.2,14.1-40.4,15.4l-3.9,0.2
	c0,0.6,0,1.2,0,1.7l0.1,1.7c0.5,7.7,2.3,14.8,5.2,21.1C309,376.2,309.9,377.8,310.7,378.5"/>
<path class="st5" d="M343.1,150.4c0-4-3-6.1-8.9-6.1c-11,0-26.7,7-47.2,21.1c-20,13.6-38.4,29.4-55.4,47.7
	c21.1-2.3,45-10.9,71.5-25.9c15.8-8.9,27.3-17.6,34.6-25.9C341.3,157.1,343.1,153.5,343.1,150.4 M213.4,298.8
	c0.5,0.1,1.1,0.1,1.6,0.1h1.7c9.7,0,20.3-4.3,31.9-13c10.3-7.8,19.3-17.3,27.1-28.6c7.6-11.1,11.4-20.3,11.4-27.4
	c0-3.2-0.8-5.5-2.5-6.9c-1.7-1.4-4.5-2.1-8.5-2.1c-4,0-8.4,0.9-13.2,2.7c-4.8,1.8-9.5,4.4-14.2,7.8c-4.7,3.4-9.2,7.4-13.4,12.1
	c-4.3,4.7-8,10-11.3,15.8c-7,12.5-10.5,25.6-10.5,39.3V298.8z M335.2,141.6c7.1,0,10.6,2.8,10.6,8.5c0,8.4-6.5,17.8-19.4,28.2
	c-12.3,9.8-27.5,18.4-45.5,25.6c-18.9,7.5-36.3,11.6-52.2,12.3c-23.5,26-35.3,46.4-35.3,61.1c0,11.7,5.6,18.7,16.7,21
	c0-20.6,7.1-39.2,21.3-55.9c8.8-10.3,18.7-17.4,29.8-21.5c5.5-2.1,11.3-3.1,17.3-3.1c6.1,0,10.8,1.5,14.1,4.4c3.4,2.9,5,6.7,5,11.3
	c0,4.6-1,9.4-2.9,14.5c-1.9,5.1-4.7,10.1-8.2,15.1c-3.5,5-7.8,9.9-12.7,14.6c-5,4.7-10.5,8.8-16.6,12.4
	c-13.3,7.9-27.2,11.8-41.7,11.8h-1c-0.3,0-0.6,0-1-0.1c0.5,13.3,2.7,22.5,6.7,27.8c0.3,0.4,0.5,0.7,0.5,0.9v0.6c0,0.4-0.3,0.6-1,0.6
	c-2.9,0-5.6-6-8.1-18.1c-0.8-3.7-1.2-7.7-1.4-12c-11.2-1.5-18.7-7.3-22.5-17.3c-1.2-3.3-1.8-7-1.8-11.3c0-17.8,8.1-37.2,24.3-58.1
	c-12.8-2.9-21-9.5-24.5-19.8c-1.1-3.2-1.6-6.6-1.6-10.3c0-3.7,1-7.5,3-11.5c2-4,4.7-7.9,8.3-11.7c3.5-3.8,7.8-7.3,12.7-10.7
	c4.9-3.4,10.3-6.3,16.2-8.8c12.8-5.5,25.8-8.2,39.1-8.2c6.2,0,9.3,0.6,9.3,1.9c0,0.6-0.5,0.9-1.5,0.9l-8.3-0.5
	c-16.1,0-32.2,5.4-48.2,16.2c-10.4,6.9-17.7,14.7-22.1,23.4c-2.3,4.5-3.4,8.5-3.4,12.1s0.5,6.5,1.5,8.8c1,2.3,2.5,4.5,4.4,6.5
	c4.1,4.3,9.9,7.2,17.3,8.9c16-19.8,35.4-36.4,58.2-49.8C294.1,148.5,315.7,141.6,335.2,141.6"/>
<path class="st5" d="M271.6,207.3c-0.7-2.3-2.8-1.7-3.2-3.5c-1.5,0.5-2.6,1-4.5,1.7c0.4,1.8-1,2.7-0.5,4.5
	C264.6,209.6,270.8,207.6,271.6,207.3"/>
<path class="st5" d="M286.8,233.7c-0.2,1.2-0.5,2.5-0.9,3.8c1.7,4.5,6,8.2,10.2,6.3c0.3-1,0.6-2.3,0.8-3.2
	C294.9,239.4,290.1,236.6,286.8,233.7"/>
<rect x="35" y="87.5" class="st6" width="530.7" height="426.5"/>
</svg>
